<svg xmlns="http://www.w3.org/2000/svg" width="96" height="48" viewBox="0 0 96 48" fill="none"><path d="M30.067 23.2982C29.9398 26.6037 30.347 32.9137 30.5898 34.9313C30.7992 36.6647 31.9976 36.6647 33.9951 36.7389C35.8165 36.8055 35.4607 35.3781 35.1704 33.6921C34.7773 31.4198 34.0105 27.9965 33.8088 26.9237C33.6071 25.8509 33.304 25.0303 33.6572 24.6437C34.0105 24.2571 34.3123 24.645 34.3637 25.2825C34.4151 25.9201 34.2006 27.1874 36.0426 26.3553C37.7934 25.5642 37.0163 24.3569 36.7838 23.0383C36.5513 21.7198 36.3637 20.2744 36.9353 20.2411C37.5069 20.2079 37.8769 20.9107 37.6033 24.4171C37.3297 27.9236 36.112 29.9911 35.6919 31.6822C35.2719 33.3733 36.2134 33.3234 39.1884 32.9445C42.1633 32.5655 41.7099 27.7622 41.6598 23.2393C41.6264 20.2399 41.1447 17.3223 40.8248 15.6965C40.5975 14.5456 39.9951 13.4997 39.101 12.7367C38.1261 11.9045 36.9302 11.2158 35.9244 10.6909C34.3496 9.86904 33.2976 10.7869 33.0625 12.094C32.6463 14.4073 32.9867 17.0957 32.9867 17.0957C30.7427 16.8422 30.1967 19.9941 30.0696 23.2995L30.067 23.2982Z" fill="#007BFC"></path><path d="M47.6507 19.901C49.169 19.3634 50.5178 15.9504 50.7374 14.3373C50.9571 12.7243 51.5698 8.75314 48.311 7.90694C46.9507 7.5536 43.8357 9.10263 42.2814 10.0167C41.2744 10.6081 40.9198 11.43 40.8839 12.8766C40.8338 14.9057 41.2538 16.1437 41.548 16.8388C41.7175 17.2395 42.1196 17.4828 42.5448 17.388C43.7689 17.1153 44.7066 16.5393 45.259 16.1219C45.6276 15.8441 45.7663 15.3564 45.5968 14.9288C45.5557 14.8251 45.5069 14.7073 45.4503 14.5754C45.0932 13.7497 45.1652 12.5771 46.0656 12.9458C47.0393 13.3439 46.5178 16.1667 45.521 17.2894C44.8993 17.9897 43.9911 18.1382 43.363 18.1459C42.8762 18.151 42.4561 18.489 42.3418 18.9614C42.2301 19.4197 42.1774 19.8844 42.153 20.2492C42.1273 20.641 42.415 21.1006 42.8017 21.1748C42.9044 21.194 42.9995 21.2119 43.0843 21.226C43.5261 21.3016 43.8383 21.6959 43.8087 22.1414C43.4696 27.2109 40.3547 35.6384 37.4979 36.7278C35.5262 37.4793 33.0136 37.1298 31.5082 36.797C30.6527 36.6075 29.7754 37.0415 29.4157 37.8365C28.3457 40.2087 27.39 44.2131 26.9006 46.465C26.7182 47.3022 27.4067 48.0767 28.2635 47.9961C32.4536 47.603 35.7741 46.8746 37.6353 46.3971C38.6976 46.1244 39.6148 45.4523 40.189 44.5216C45.0958 36.5627 47.2705 27.5412 48.0823 23.4715C48.8209 19.7679 47.6533 19.901 47.6533 19.901H47.6507Z" fill="#007BFC"></path><path d="M55.9926 15.6501C56.0556 15.0472 55.5854 14.3968 54.9278 14.457C54.1339 14.53 52.9381 14.8667 51.6458 15.3275C51.0434 15.5426 50.5784 16.0905 50.4204 16.7191C50.1673 17.7253 50.053 19.6392 50.9329 21.4456C52.2239 24.0956 54.1982 25.3962 53.3568 27.3562C53.2361 27.6366 52.9059 27.771 52.6336 27.6417C52.3998 27.5252 52.2701 27.2461 52.3356 26.9913C52.4975 26.364 53.0549 24.9238 52.1622 24.4681C51.6368 24.1992 50.5116 24.2031 49.6934 24.2466C49.0344 24.2825 48.3292 24.7395 48.1057 25.3693C47.5033 27.0733 47.064 28.6325 47.5007 30.8767C48.1725 34.3345 51.6214 33.1606 53.0331 32.838C54.3664 32.5333 57.2579 32.1441 57.7088 28.8822C58.0248 26.6009 57.5431 24.5833 56.405 22.4492C54.4075 18.7008 55.8244 17.2773 55.9939 15.6514L55.9926 15.6501Z" fill="#007BFC"></path><path d="M70.0111 7.28193C70.4619 2.85504 69.2712 0.317706 65.4819 1.20232C62.0702 1.99859 60.7009 2.62077 60.9398 5.58568C61.1376 8.05389 63.4164 10.6834 64.0702 11.5334C64.0702 11.5334 64.0548 12.8815 62.778 14.5188C62.417 14.9823 62.372 15.6172 62.6482 16.1357C63.0477 16.8834 63.7812 17.8717 65.0387 18.4221C65.0837 18.6372 65.1325 18.8958 65.18 19.1851C65.3919 20.715 65.3753 22.9963 63.5178 23.4507C63.5178 23.4507 61.821 23.9244 61.5268 22.0732C61.4356 21.1029 61.5564 19.7177 61.6129 17.8435C61.69 15.2946 61.2738 7.51109 59.3059 4.29013C58.9462 3.70253 58.2886 3.48745 57.6617 3.67052C55.6784 4.24917 53.0863 5.21443 51.2815 6.10544C50.5982 6.44213 50.3592 7.38435 50.8332 8.0206C52.7048 10.5349 56.5557 13.0658 57.2751 17.9446C57.8647 21.9375 57.9225 25.4427 58.2179 28.6304C58.3682 30.2421 59.7812 31.3277 61.2134 30.9373C62.5095 30.5852 64.0458 30.1589 65.4382 29.7518C67.7285 29.0823 69.7208 27.0289 69.9122 24.4313C70.1383 21.3743 69.9558 18.1379 68.2898 13.9863C68.1871 13.7302 68.2012 13.4435 68.3232 13.1964C68.7471 12.3361 69.7233 10.1048 70.0111 7.28065V7.28193ZM66.1241 7.90539C65.821 7.93227 65.5384 7.43428 65.4947 6.79418C65.451 6.15409 65.6617 5.61257 65.9648 5.58568C66.268 5.5588 66.5506 6.05679 66.5943 6.69689C66.6379 7.33698 66.4273 7.8785 66.1241 7.90539Z" fill="#007BFC"></path><path d="M81.811 2.45576C81.3794 1.33304 80.5072 0.572606 79.224 0.379298C77.8573 0.174467 77.0583 0.265361 76.7089 0.477872C76.2208 0.773596 76.0692 1.38553 76.0692 1.38553C76.0654 1.37528 76.0615 1.36504 76.0564 1.3548C75.716 0.543162 74.9119 -0.0162809 74.0564 0.000361569C73.4193 0.0131635 72.7295 0.000361568 72.1026 0.0515691C70.7218 0.164226 69.8329 1.55451 70.1039 3.22644C70.7308 7.09773 70.8798 10.7501 70.8335 15.7556C70.7821 21.2566 70.2157 25.0191 70.0076 27.3042C69.9626 27.8061 70.3364 28.2273 70.7976 28.0634C72.2516 27.5462 73.7455 26.9983 74.8888 26.5348C75.7725 26.1764 76.3492 25.2956 76.3557 24.315C76.3955 17.5671 74.1026 12.1596 74.98 11.6462C75.7019 11.2238 75.6029 13.1364 75.6685 14.2988C75.6967 14.8122 76.0936 15.2257 76.5907 15.2551C77.2433 15.2922 77.7378 15.2397 78.0885 15.168C78.4905 15.0861 78.7924 14.7443 78.8412 14.3244C79.2035 11.2084 78.4494 9.35342 79.0236 9.01801C79.6479 8.65316 79.9035 9.47632 79.3846 13.6805C79.0442 16.4341 78.0602 20.4475 77.4437 23.0681C77.2009 24.0999 78.2799 24.9269 79.1636 24.3841C80.6755 23.456 81.9729 22.4856 82.7898 21.8186C83.5053 21.2349 83.9433 20.3631 83.9908 19.4234C84.1488 16.3292 83.8958 11.2135 83.188 7.44338C82.777 5.25426 82.2452 3.58745 81.811 2.45832V2.45576Z" fill="#007BFC"></path><path d="M95.4515 5.16848C94.4598 4.71785 92.8773 3.82172 90.438 3.18162C89.0096 2.80653 88.2196 3.62073 88.4329 4.90348L88.867 5.05838C88.867 5.05838 88.4342 4.9086 88.4354 4.91628C88.4509 5.00333 88.4701 5.09166 88.4945 5.18128C88.6628 5.8905 89.6557 8.10395 91.1111 11.2609C91.3295 11.8344 92.1002 11.9394 92.4624 11.4427C92.7116 11.1009 92.9993 10.6963 93.3038 10.2495C93.7097 9.65298 93.5928 8.84646 93.0302 8.39327C92.745 8.16412 92.4136 7.66484 92.2415 7.39856C91.3166 5.97243 92.3096 5.71512 93.0276 7.53811C93.1304 7.80054 93.2498 8.02586 93.3641 8.22685C93.6326 8.7018 94.3096 8.72356 94.6063 8.26525C95.0225 7.62132 95.4528 6.93386 95.8189 6.29376C96.0526 5.88538 95.8818 5.36434 95.4528 5.16976L95.4515 5.16848Z" fill="#007BFC"></path><path d="M89.8108 8.79795C89.4178 7.72387 88.0639 7.32701 87.1621 8.05672C87.0555 8.14249 86.8089 8.40749 86.7113 8.50479C86.8423 6.83158 87.9765 3.0563 86.7383 2.17041C85.8494 1.53416 82.543 0.972154 82.5327 0.970873C82.4826 0.964472 82.4544 0.960632 82.4544 0.960632C82.2322 0.933748 82.0138 1.05921 81.9342 1.27684C81.8918 1.39462 81.9085 1.5252 81.9611 1.63913C82.0048 1.73387 82.0472 1.82988 82.0896 1.92717C82.0999 1.9643 82.1127 2.00015 82.1294 2.03599C82.1538 2.0872 82.1782 2.14097 82.2026 2.19473C83.4563 5.25055 83.9714 9.15128 84.0446 9.85411C84.3992 13.2633 84.4916 16.4125 84.4698 18.3597L84.4261 19.6091C84.4184 19.7948 84.5469 19.9612 84.7344 19.9958C84.8385 20.015 84.9438 19.983 85.0299 19.9215C85.5552 19.5426 86.674 18.3789 87.5013 17.4789C87.7132 17.2485 87.7607 16.9105 87.6207 16.6301C87.4871 16.3626 87.3137 15.9875 87.1467 15.542C87.0632 15.2795 86.9785 14.9851 86.8975 14.6497C86.5058 13.0226 86.3324 11.1817 86.9746 11.3238C87.351 11.4083 87.1377 11.7411 87.3484 14.4615C87.3831 14.9173 87.4614 15.3576 87.5501 15.7404C87.6734 16.2755 88.3709 16.4471 88.7395 16.0323C89.2418 15.469 89.8751 14.7457 90.4184 14.0928C90.8025 13.6307 90.9566 13.0277 90.8372 12.4452C90.6458 11.5209 90.2822 10.0756 89.8134 8.79411L89.8108 8.79795Z" fill="#007BFC"></path><path d="M29.4922 33.2419C30.2989 30.3269 30.1499 25.685 27.7838 25.1166C25.1197 24.4752 23.6875 26.7194 23.6875 26.7194C23.2122 23.7532 24.6406 24.0143 26.8705 22.3949C29.0966 20.7767 31.8274 19.8038 30.4903 13.8163C29.7324 10.4251 28.7279 8.31664 27.9996 7.12606C27.5025 6.31314 26.4916 5.97517 25.5988 6.31442C23.7671 7.01213 21.3137 8.20654 19.3329 9.22045C18.1576 9.76965 17.1415 10.2843 15.893 11.037C14.9964 11.5773 15.6476 12.1943 16.0292 12.4939C18.2629 14.2503 20.042 15.8121 22.8654 18.1178C23.3381 18.5031 24.0394 19.2623 22.5699 20.2557C21.6708 20.8638 21.6194 20.9944 20.0728 21.9596C19.2559 22.4691 18.7703 23.3243 18.7767 24.2076C18.7767 24.31 18.7883 24.4112 18.8037 24.511C18.8037 24.511 18.8037 24.5149 18.8063 24.5226C18.8153 24.5789 19.0529 25.6965 19.2263 26.3865C19.2263 26.3878 19.2263 26.3891 19.2263 26.3904C19.6669 28.2313 20.602 31.5764 22.2475 35.0956C22.6059 35.8625 23.3676 36.3605 24.2167 36.3912C24.5751 36.404 25.0079 36.413 25.5243 36.413C27.5436 36.4539 28.6675 36.226 29.4935 33.2419H29.4922ZM25.2636 31.3255C25.3059 30.848 25.6271 30.4716 25.9829 30.4831C26.3387 30.4946 26.5917 30.8915 26.5506 31.369C26.5083 31.8465 26.1871 32.2229 25.8313 32.2114C25.4755 32.1998 25.2225 31.803 25.2636 31.3255Z" fill="#007BFC"></path><path d="M21.0841 37.0061C20.9068 36.8742 20.7514 36.7347 20.6435 36.631C20.5433 36.535 20.3969 36.5068 20.2684 36.5593C19.5594 36.8499 18.9993 37.0138 18.5754 37.1085C17.201 37.321 16.2543 37.3159 14.9891 37.056C14.542 36.9651 14.2633 36.5247 14.3699 36.0831C14.4072 35.9269 14.447 35.7566 14.4855 35.5851C14.5921 35.1037 14.2427 34.6416 13.7495 34.6096C12.9197 34.5558 11.6018 34.3292 10.1104 33.5419C9.79959 33.378 9.71482 32.9735 9.92805 32.6957C10.4907 31.966 11.5196 30.5731 12.2235 29.2712C12.3982 28.9486 12.3314 28.5479 12.0603 28.3008C11.9062 28.16 11.7199 27.9987 11.5196 27.8412C11.1586 27.5596 11.1034 27.0347 11.4014 26.6878C12.1837 25.7788 13.8189 24.2464 16.3468 23.6409C16.4932 23.6063 16.605 23.4911 16.6435 23.3465C16.6743 23.23 16.7193 23.0764 16.7822 22.9022C16.8221 22.7922 16.763 22.6718 16.6499 22.6398C15.7276 22.3684 11.8112 21.5696 6.72959 25.6022L2.86576 28.5748C2.86576 28.5748 3.97815 29.6949 5.22285 30.3568C5.22028 30.3606 3.50545 33.5867 0 36.3788C0 36.3788 4.96467 38.1147 7.88438 37.9317C7.88438 37.9317 7.62619 39.208 7.56582 40.6674C7.56582 40.6674 11.8433 41.1974 15.5067 40.3474C15.5067 40.3474 17.0289 40.0773 18.7167 39.2093C19.7649 38.7548 20.6692 37.9726 21.1226 37.5399C21.2806 37.3889 21.2601 37.1354 21.0841 37.0048V37.0061Z" fill="#FF6B00"></path><path d="M45.9638 33.8447C45.8854 34.0675 46.0152 34.2685 46.317 34.2224C46.6189 34.1763 47.7968 33.9548 48.317 33.8422C48.5778 33.7858 48.6317 33.4428 48.4031 33.3058C47.9175 33.0139 47.4513 32.37 47.2624 31.4444C47.238 31.3253 47.1597 31.2242 47.0415 31.1909C46.8796 31.1461 46.7127 31.2395 46.6664 31.4008L45.9638 33.8434V33.8447Z" fill="#007BFC"></path><path d="M29.8852 7.68094L33.5397 9.5705C33.776 9.69212 33.794 10.016 33.5795 10.1735C32.9077 10.6625 31.9969 12.4919 32.2539 16.1328C32.268 16.3363 32.1061 16.5117 31.9006 16.5117C31.7195 16.5117 31.5679 16.3773 31.5487 16.198C31.4356 15.1547 30.9064 11.2053 29.4048 8.14949C29.2545 7.84353 29.5833 7.52476 29.8852 7.68222V7.68094Z" fill="#007BFC"></path><path d="M51.3797 10.4536C51.6109 11.3523 51.7047 12.9692 51.4876 14.2404C51.4555 14.4286 51.6469 14.5822 51.8409 14.5284C52.3483 14.3889 52.9879 14.001 54.4266 13.896C54.654 13.8794 54.7773 13.6784 54.6681 13.4889C53.9513 12.2497 52.8068 11.1974 51.8576 10.2168C51.6623 10.0158 51.3117 10.1873 51.3797 10.4523V10.4536Z" fill="#007BFC"></path><path d="M69.0553 13.2716C69.2339 12.8761 69.5717 12.0888 69.8106 11.295C69.8749 11.0812 70.1626 11.1171 70.1819 11.3398C70.2859 12.5701 70.4054 14.5442 70.3116 16.3531C70.3 16.5822 70.0007 16.6206 69.9378 16.4017C69.7426 15.7194 69.4445 14.7836 69.0451 13.8029C68.9757 13.6327 68.9808 13.4394 69.0553 13.2729V13.2716Z" fill="#007BFC"></path><path d="M28.6543 36.4225C28.8971 36.4763 29.1758 36.6082 29.3441 36.918C29.407 37.0332 29.5637 37.0511 29.6434 36.9474C29.7808 36.7669 30.0133 36.5557 30.4231 36.4494C30.5438 36.4187 30.5965 36.2804 30.5246 36.1793C30.3409 35.9232 30.0968 35.3856 30.0403 34.3089C30.03 34.1233 29.7731 34.0811 29.705 34.2539C29.452 34.8978 29.0653 35.6749 28.5708 36.1281C28.4668 36.2228 28.5181 36.3931 28.6556 36.4238L28.6543 36.4225Z" fill="#FF6B00"></path><path d="M89.9375 7.09766C90.0582 7.4958 90.2702 7.86065 90.5605 8.16021C90.4449 7.75951 90.2342 7.3921 89.9375 7.09766Z" fill="white"></path><path d="M63.8054 16.2187C63.149 15.4224 63.1657 15.2816 63.4522 14.2344C62.7624 15.183 62.7919 15.7719 63.8337 16.3979C63.8992 16.4389 63.9647 16.476 64.0328 16.5118C63.9454 16.4005 63.8863 16.3224 63.8054 16.2174V16.2187Z" fill="white"></path><path d="M91.2746 13.4838C90.9907 13.8935 90.7364 14.3287 90.5039 14.7794C90.6002 14.6846 90.6966 14.5912 90.7929 14.4964C91.7088 13.6425 92.536 12.6312 93.0627 11.3945C92.4577 12.0794 91.8013 12.7093 91.2746 13.4838Z" fill="#FF6B00"></path><path d="M89.7063 6.3823C89.732 6.4143 89.7589 6.44503 89.7859 6.47447C89.687 6.25044 89.6241 6.0136 89.5431 5.78189C89.5213 5.691 89.5008 5.59882 89.4853 5.50665C89.4173 5.14692 89.3261 4.70653 89.3325 4.46073C89.3325 4.45305 89.3351 4.50938 89.3338 4.49274C89.3106 4.19573 89.38 3.88849 89.6138 3.6875C89.1719 3.84112 89.0088 4.31351 88.9831 4.74238C88.9253 5.40039 89.2606 6.07249 89.6035 6.52312C89.6588 6.59993 89.7705 6.7766 89.8103 6.78812C89.7808 6.65114 89.7448 6.51672 89.7076 6.3823H89.7063Z" fill="white"></path><path d="M21.229 21.9492C21.0427 22.003 20.8937 22.1336 20.7306 22.2283C19.1943 23.1884 19.1622 25.2508 19.8751 26.709C19.9059 26.7819 19.9393 26.8523 19.9714 26.924C19.965 26.5425 19.947 26.1623 19.9496 25.7808C19.9316 24.7042 20.078 23.794 20.4788 22.9119C20.6612 22.6021 20.9066 22.2974 21.1866 22.0478C21.2444 22.0171 21.2983 21.9812 21.2277 21.9492H21.229Z" fill="white"></path><path d="M29.8581 14.0234C29.9134 14.2769 29.9519 14.5611 29.9776 14.8568C29.9904 15.1935 29.984 15.5302 29.9545 15.8669C29.9134 16.6491 29.8838 16.8655 29.7194 17.6413C29.5832 18.1764 29.3392 18.6488 29.2133 19.0021C29.1259 19.1992 29.0052 19.3785 28.9012 19.5679C28.7997 19.7868 28.6802 19.9955 28.5299 20.185C28.3604 20.4564 28.1292 20.7265 27.957 20.9224C28.0508 20.8648 28.1433 20.8046 28.2332 20.7419C28.0688 20.9416 28.0084 21.0658 28.2846 20.9262C28.3963 20.8699 28.6687 20.6369 28.7611 20.5511C29.7194 19.6243 30.3732 18.3607 30.4323 17.0204C30.467 16.0065 30.3411 14.9285 29.8581 14.0234V14.0234Z" fill="white"></path><path d="M29.5392 28.5368C29.5315 27.9044 29.4442 27.263 29.1333 26.6997C28.3356 25.3184 27.0267 25.0265 25.7422 25.9905C26.0826 25.8599 26.3536 25.8036 26.6966 25.7678C27.0113 25.7422 27.4622 25.7626 27.791 25.979C28.2431 26.2619 28.5861 26.7266 28.8212 27.1837C29.0704 27.6688 29.1706 28.3794 29.362 29.6519C29.3671 29.6839 29.3915 29.7005 29.4172 29.7031C29.4236 29.7952 29.4313 29.8797 29.4429 29.9156C29.4609 29.8119 29.4776 29.7069 29.4943 29.6032C29.5611 29.2563 29.5739 28.8953 29.5379 28.5394L29.5392 28.5368Z" fill="white"></path><path d="M32.9979 35.8357C32.2619 35.7627 32.1141 35.0151 31.933 34.4275C31.7429 33.7208 31.531 33.0206 31.3203 32.3203C31.3563 33.5711 31.2304 36.5078 33.2188 35.965C33.2908 35.9484 33.3614 35.9292 33.4333 35.91C33.2869 35.8882 33.1418 35.8677 32.9979 35.8357Z" fill="white"></path><path d="M41.2919 39.6027C40.8526 40.3772 40.3773 41.1363 40.0343 41.9608C39.9573 42.1131 39.8738 42.2834 39.7864 42.4613C39.7684 42.4895 39.753 42.5164 39.7338 42.5445C39.4897 42.9478 39.3189 43.1206 39.0889 43.5047C38.7549 43.9937 38.5995 44.3022 38.1859 44.6761C38.0896 44.7708 37.956 44.8886 37.8789 44.9679C37.9444 44.9359 38.0086 44.9052 38.0742 44.8719C38.0754 44.8719 38.078 44.8706 38.0793 44.8694C38.0562 44.8898 38.0343 44.9103 38.0112 44.9308C38.0793 44.8988 38.1487 44.8668 38.2167 44.8335C38.2848 44.8041 38.3503 44.7695 38.4158 44.7349C38.2578 44.8591 38.0767 44.9513 37.911 45.0639C38.2155 44.9615 38.5571 44.9014 38.7922 44.6645C39.1339 44.3112 39.4974 43.9745 39.7838 43.5738C40.0562 43.1769 40.349 42.7929 40.5944 42.3781C40.8821 41.843 41.1467 41.2951 41.4178 40.751C41.6759 40.1775 41.8943 39.5873 42.1589 39.0163C42.3799 38.4723 42.5725 37.9167 42.8179 37.3828C42.2681 38.0933 41.798 38.8589 41.2944 39.6014L41.2919 39.6027Z" fill="white"></path><path d="M28.6727 46.2728C28.3876 45.6839 28.507 44.8902 28.5687 44.1835C28.5841 43.9287 28.6213 43.6753 28.6432 43.4218C28.6432 43.4013 28.6265 43.3821 28.6059 43.3795C28.5854 43.3757 28.5648 43.3898 28.5597 43.4103C28.5584 43.4192 28.5584 43.4282 28.5571 43.4371C28.5186 43.4807 28.5109 43.5908 28.4736 43.6586C28.2745 44.3102 28.0279 44.9772 28.0395 45.666C28.1101 46.8296 29.0183 47.4352 30.1345 47.1292C29.5475 47.0562 28.9078 46.8258 28.6753 46.2715L28.6727 46.2728Z" fill="white"></path><path d="M48.4223 25.9565C48.0665 26.813 47.9881 27.7629 48.0434 28.6821C48.0691 29.0162 48.1076 29.3516 48.177 29.6793C48.1808 29.6217 48.1924 29.5232 48.2001 29.4527C48.2104 29.4976 48.2206 29.5411 48.2309 29.582C48.2348 29.3823 48.2502 29.1826 48.263 28.9842C48.3799 28.1918 48.5405 27.3276 48.7319 26.5211C48.8064 26.2343 48.8629 25.9194 49.0337 25.6967C49.1378 25.5469 49.4409 25.4073 49.5026 25.3843C49.8494 25.2294 50.1526 25.2332 50.5289 25.1859C49.7145 24.9874 48.7499 25.0527 48.421 25.9553L48.4223 25.9565Z" fill="white"></path><path d="M65.1289 29.1328C65.5168 29.0701 65.8765 28.8883 66.145 28.6016C65.7789 28.7206 65.4295 28.8909 65.1289 29.1328Z" fill="white"></path><path d="M69.4276 22.9202C69.4096 22.837 69.3903 22.7551 69.371 22.6719C69.3466 22.9574 69.321 23.1545 69.2863 23.4105C69.2863 23.4169 69.285 23.4246 69.2837 23.431C69.0204 24.8892 68.7468 25.5856 68.021 26.7326C67.7783 27.141 67.6048 27.3292 67.3107 27.6761C67.1411 27.8733 66.9985 28.096 66.7969 28.2637C67.1283 28.114 67.4032 27.8618 67.7076 27.6672C68.2612 27.2844 68.7185 26.7659 69.0782 26.2014C69.61 25.2054 69.6755 24.0071 69.4276 22.9202V22.9202Z" fill="white"></path><path d="M75.3663 21.6505C75.3059 21.4354 75.2417 21.2216 75.1787 21.0078C75.1864 21.4712 75.1929 21.936 75.2147 22.3994C75.2468 22.9895 75.2841 23.5823 75.2031 24.1712C75.2057 24.3299 75.0541 25.0033 74.7202 25.4155C74.5493 25.6357 74.2269 26.0223 73.8711 26.1977C74.5506 26.0658 75.1608 25.5832 75.4857 24.9777C76.0162 23.9254 75.6604 22.7194 75.365 21.6505H75.3663Z" fill="white"></path><path d="M86.6493 6.24085C86.7071 6.02194 86.7547 5.79919 86.7816 5.57387C86.9448 4.64574 87.0167 3.61134 86.4759 2.7997C86.3012 2.57183 86.0405 2.43485 85.7694 2.34268C85.7155 2.32475 85.6782 2.39644 85.7232 2.42973C85.9338 2.58591 86.1265 2.76386 86.2319 2.99941C86.422 3.53709 86.3924 3.79569 86.4644 4.2796C86.4682 4.34361 86.4733 4.40762 86.4798 4.47163C86.5324 5.07588 86.562 5.68269 86.6236 6.28694C86.6236 6.3023 86.6236 6.31766 86.6249 6.33303C86.6249 6.33047 86.6262 6.32791 86.6275 6.32535C86.6275 6.33047 86.6275 6.33687 86.6288 6.34199C86.6365 6.3087 86.6429 6.27542 86.6493 6.24213V6.24085Z" fill="white"></path><path d="M88.4213 14.4524C88.3404 14.1068 88.2492 13.7624 88.1477 13.4219C88.1104 14.0978 88.0655 15.4023 89.0661 15.2769C88.6499 15.1975 88.4804 14.8326 88.4213 14.4524Z" fill="white"></path><path d="M71.2006 3.83756C71.2315 3.94509 71.2623 4.05263 71.2995 4.1576C71.2931 4.03599 71.2918 3.91437 71.2905 3.79275C71.2841 3.20386 71.3997 2.62266 71.568 2.06065C71.6823 1.66764 71.866 1.29126 72.1987 1.03906C71.1865 1.48329 70.9257 2.86077 71.1993 3.83756H71.2006Z" fill="white"></path><path d="M41.9979 11.1738C41.2208 12.326 41.6383 13.8174 41.9517 15.0617C41.9889 15.1654 42.1058 15.6647 42.0891 15.4036C42.1032 14.7199 42.1161 14.035 42.102 13.3501C42.1097 12.6409 41.9966 11.9138 42.3216 11.2749C42.5284 10.9344 42.8624 10.6976 43.1655 10.4492C42.7429 10.6233 42.2869 10.8026 41.9979 11.1738V11.1738Z" fill="white"></path><path d="M36.647 45.384C36.2501 45.4826 35.9457 45.6157 35.5898 45.7412C36.1717 45.7886 36.7575 45.6439 37.2533 45.3367C37.3137 45.3021 37.3728 45.265 37.4318 45.2266C37.1685 45.2701 36.9052 45.3175 36.647 45.3827V45.384Z" fill="white"></path><path d="M36.6976 12.405C36.0939 11.8264 35.0624 10.9674 34.2352 11.6126C33.8319 11.9826 33.8152 12.5625 33.8074 13.072C33.7959 13.7441 33.819 14.4188 33.9076 15.0857C33.9821 14.429 34.1042 13.7543 34.2031 13.0835C34.266 12.5497 34.3726 12.0747 34.6141 11.9057C34.6925 11.8533 34.758 11.8341 34.8518 11.8213C35.372 11.788 35.8537 12.021 36.3084 12.2527C36.4703 12.3308 36.6308 12.4101 36.7888 12.4946C36.758 12.4639 36.7272 12.4332 36.6963 12.4037L36.6976 12.405Z" fill="white"></path><path d="M46.8157 25.4068C46.8054 25.4516 46.7527 25.6526 46.7373 25.7345C46.7219 25.8164 46.6962 26.0289 46.668 26.0763C46.9852 25.4516 47.2833 24.8166 47.5273 24.1586C47.9178 23.0589 48.1118 21.8402 47.7778 20.7008C47.5723 20.1618 47.2627 19.9813 46.7425 19.9493C46.7065 19.9468 46.6949 19.9967 46.7283 20.0095C46.7515 20.0184 46.7733 20.0261 46.7964 20.0351C47.1201 20.158 47.3539 20.4435 47.4053 20.7853C47.4657 21.1885 47.4669 21.6724 47.44 22.0053C47.3256 23.4007 47.2075 23.7681 46.8851 25.1136C46.8851 25.1136 46.8851 25.1136 46.8851 25.1149C46.8632 25.207 46.8401 25.3031 46.8157 25.4055" fill="white"></path><path d="M54.1641 15.3315C54.4068 15.3584 54.6971 15.2905 54.877 15.448C54.9296 15.5325 54.8911 15.6451 54.8808 15.7386C54.8294 15.9908 54.7357 16.2302 54.6676 16.4786C54.4197 17.3824 54.5777 18.3259 54.8127 19.2156C54.8294 18.6357 54.8397 18.0532 54.895 17.4745C54.9528 16.9855 55.0157 16.6437 55.1275 16.074C55.2765 15.2022 54.9386 15.087 54.1653 15.3302L54.1641 15.3315Z" fill="white"></path><path d="M27.8343 8.77947C27.5569 8.14322 27.0251 7.00001 26.1683 7.23428C25.7997 7.32005 25.4593 7.52616 25.2422 7.83981C25.5222 7.58889 25.9076 7.46728 26.2081 7.44679C26.3173 7.44167 26.4317 7.43783 26.5357 7.47496C26.659 7.52873 26.7566 7.62602 26.8504 7.72075C27.1124 7.98319 27.3308 8.28276 27.5428 8.58616C27.7072 8.83068 27.878 9.07263 28.0386 9.32099C27.9782 9.13792 27.9088 8.9587 27.8343 8.78075V8.77947Z" fill="white"></path><path d="M79.8792 23.191C79.2614 23.3434 78.5498 23.2435 78.4907 22.4844C78.2942 23.4164 79.2614 23.7338 79.9473 23.2679C80.0193 23.2218 80.0899 23.1744 80.158 23.1206C80.0655 23.1462 79.973 23.168 79.8792 23.1898V23.191Z" fill="white"></path><path d="M17.0703 11.7118C17.4531 11.4878 17.8641 11.2868 18.1917 11C17.7729 11.1511 17.3542 11.3585 17.0703 11.7118Z" fill="white"></path><path d="M61.346 30.0794C60.7384 30.1332 60.2246 29.7081 59.9446 29.287C59.7814 28.9759 59.6966 28.4779 59.5862 28.0657C59.3794 27.1426 59.2034 26.1953 59.107 25.2812C58.9773 26.1543 58.9568 27.0466 59.0313 27.9261C59.0993 28.4715 59.1584 29.0399 59.423 29.5315C60.0152 30.4263 61.0287 30.7707 61.9535 30.1242C62.0794 30.0423 62.2053 29.9591 62.3261 29.8707C62.0036 29.9591 61.6799 30.064 61.3447 30.0794H61.346Z" fill="white"></path><path d="M31.069 30.7714C31.0524 30.7279 31.046 30.6843 31.0421 30.7599C30.9999 31.1042 31.0447 31.464 31.2201 31.7687C31.2163 31.4307 31.1881 31.0914 31.069 30.7714V30.7714Z" fill="white"></path><path d="M36.1133 43.19C36.2199 43.1567 36.3188 43.1029 36.4062 43.0312C36.2995 43.0658 36.2006 43.1196 36.1133 43.19Z" fill="#FF6B00"></path><path d="M28.3607 37.1531C28.1244 36.7102 27.5515 36.7319 27.116 36.7575C26.4172 36.8011 25.7146 36.8728 25.0312 37.0277C25.7544 37.0584 26.4763 37.1352 27.2008 37.1608C27.6157 37.1762 27.7994 37.2082 27.9227 37.3003C27.9278 37.3055 27.9343 37.3093 27.9394 37.3144C28.0216 37.3976 28.0396 37.3976 28.0897 37.5602C28.1025 37.5948 28.0974 37.7395 28.0974 37.7651C28.0974 38.2118 28.073 38.4436 28.0036 38.7764C27.9368 39.1131 27.87 39.501 27.8302 39.8172C28.0178 39.2949 28.2464 38.7866 28.4057 38.2554C28.484 37.8982 28.4982 37.4975 28.3607 37.1531V37.1531Z" fill="#FF6B00"></path><path d="M27.0625 43.0433C27.4016 42.1727 27.6059 41.2549 27.6444 40.3203C27.3143 41.1947 27.092 42.1062 27.0625 43.0433Z" fill="#FF6B00"></path><path d="M22.4807 18.4286C22.1621 18.1354 21.2951 17.6476 20.7812 17.2969C21.2784 17.9267 21.8654 18.4772 22.4575 19.0149C22.5526 19.1007 22.559 19.2479 22.4717 19.3426C22.2674 19.5628 21.9926 19.7228 21.769 19.92C21.6907 19.9942 21.1743 20.3642 21.4235 20.2362C21.9527 19.9789 22.5821 19.8009 22.9675 19.3337C23.209 18.9534 22.7466 18.636 22.4794 18.4286H22.4807Z" fill="#FF6B00"></path><path d="M19.3078 22.1211C18.9263 22.2491 18.6771 22.5269 18.4793 22.7894C17.9925 23.4525 17.9745 24.25 18.2866 24.958C18.3239 25.0438 18.3611 25.1308 18.4023 25.2153C18.3997 25.1244 18.401 25.0335 18.3997 24.9426C18.3971 24.7519 18.392 24.5086 18.3843 24.2718C18.3663 23.6228 18.5654 22.9801 18.9764 22.4603C19.0856 22.3221 19.1987 22.2005 19.3066 22.1211H19.3078Z" fill="#FF6B00"></path><path d="M18.4648 25.6016C18.4944 25.8858 18.5882 26.2071 18.7616 26.4158C18.7128 26.129 18.6267 25.8461 18.4648 25.6016Z" fill="#FF6B00"></path><path d="M50.3246 33.9603C49.7273 34.0998 49.1287 34.2304 48.5237 34.3354C47.9289 34.4263 47.3419 34.5569 46.7536 34.6797C46.7857 34.6759 46.8178 34.6721 46.85 34.6682C46.4595 34.7143 46.0908 34.8795 45.8133 35.1381C45.3239 35.5285 45.1492 36.1148 44.9501 36.6602C44.6907 37.3707 44.3593 38.0582 44.1396 38.7802C44.0471 39.5752 44.9193 37.7868 45.4139 36.8599C45.6772 36.3952 46.0381 35.9446 46.3708 35.6527C46.6431 35.4287 46.6958 35.4235 46.8474 35.3659C46.9206 35.339 46.9951 35.3134 47.0696 35.2904C47.6117 35.1227 48.1422 34.9217 48.6791 34.7425C49.2456 34.5389 49.7864 34.2816 50.3169 34.0089C50.3734 33.9795 50.4312 33.9513 50.4877 33.9219C50.4338 33.9347 50.3798 33.9475 50.3259 33.9603H50.3246Z" fill="#FF6B00"></path><path d="M39.3477 10.6627C39.3477 10.6627 39.3515 10.6615 39.3541 10.6602C39.3541 10.6602 39.3554 10.6602 39.3567 10.6602C39.3515 10.6627 39.3515 10.6627 39.3477 10.664V10.6627Z" fill="#FF6B00"></path><path d="M39.481 10.5789C39.386 10.6225 39.1599 10.7223 38.8169 10.8158C38.5497 10.8887 38.2672 10.8836 38.0218 10.7543C37.6236 10.5431 37.2293 10.3229 36.8555 10.072C37.0764 10.3677 37.3346 10.6327 37.5979 10.89C37.6185 10.9079 37.639 10.9272 37.6596 10.9464C38.0848 11.3522 38.7052 11.4956 39.2549 11.2869C39.9473 11.0244 40.6153 10.4727 41.1496 10.0976C41.2845 9.99517 41.4181 9.89148 41.553 9.78906C40.8285 10.0182 40.1772 10.273 39.481 10.5777V10.5789Z" fill="#FF6B00"></path><path d="M61.5767 1.76927C60.3552 2.05859 59.2094 2.5553 58.0584 3.03025C57.9878 3.04305 57.9197 3.06098 57.8632 3.09938C57.808 3.18003 57.9133 3.18259 57.9711 3.17235C58.6904 3.03921 59.3931 2.8395 60.0983 2.65132C61.2004 2.32999 62.0186 1.96642 63.0475 1.49531C63.0809 1.47994 63.113 1.46458 63.1464 1.44922C62.6185 1.53499 62.0931 1.63869 61.5755 1.77055L61.5767 1.76927Z" fill="#FF6B00"></path><path d="M23.7331 36.8337C23.3066 36.7403 22.816 36.5034 22.6323 36.2602C22.4473 36.0374 22.1686 35.6124 21.9348 35.236C21.8243 35.0568 21.7151 34.8673 21.5802 34.7073C21.5597 34.7048 21.5764 34.7201 21.5828 34.7291C21.8603 35.3448 22.0478 36.1923 22.5937 36.6174C22.9637 36.8696 23.4672 36.9732 23.9116 36.9387C24.008 36.9323 24.1043 36.9208 24.2007 36.9105C24.0452 36.8862 23.8885 36.8657 23.7344 36.835L23.7331 36.8337Z" fill="#FF6B00"></path><path d="M69.3264 3.10001C69.1183 2.50344 68.7317 1.94784 68.1639 1.64315C67.6861 1.40632 67.3624 1.44216 66.7767 1.46777C66.2359 1.51257 65.7246 1.6982 65.2031 1.83518C65.6437 1.82366 66.0817 1.76605 66.5236 1.80318C66.9205 1.81854 67.5525 1.98496 67.6989 2.08098C68.3913 2.56105 68.5365 3.0424 68.8768 4.14208C69.0515 4.8385 69.0682 5.14959 69.0734 6.13022C69.0387 6.90345 68.9102 7.669 68.8948 8.4448C69.1684 7.40016 69.5846 6.38369 69.6411 5.29553C69.7105 4.55046 69.5936 3.79771 69.3239 3.10129L69.3264 3.10001Z" fill="white"></path><path d="M60.2118 10.4345C60.1976 10.1183 60.1822 9.80335 60.1681 9.48714C60.1424 8.74335 60.0576 8.00596 59.8778 7.28906C59.6864 6.41469 59.1431 4.62242 58.3608 4.28317C58.0474 4.18844 57.7237 4.31518 57.4269 4.4304C57.0377 4.6045 56.6537 4.79397 56.2734 4.99368C56.9414 4.85926 57.6864 4.6109 58.1527 4.72612C58.3479 4.79653 58.5547 5.23436 58.7153 5.61713C59.0557 6.48638 59.364 7.34667 59.7108 8.48988C59.8765 9.11077 60.014 9.7419 60.1874 10.3615C60.1964 10.3922 60.2028 10.4217 60.2118 10.4498C60.2118 10.4447 60.2118 10.4409 60.2118 10.4358V10.4345Z" fill="white"></path><path d="M77.216 14.7042C76.7227 14.4981 76.3554 13.995 76.277 13.4727C76.0664 14.0705 76.5429 14.7925 77.1942 14.7772C77.261 14.7772 77.3278 14.772 77.3933 14.7605C77.3329 14.7452 77.2738 14.726 77.2147 14.7029L77.216 14.7042Z" fill="white"></path><path d="M70.5075 28.6208C69.7265 28.791 68.9558 29.0074 68.1838 29.2109C67.53 29.4094 66.8942 29.6552 66.2969 29.924C67.241 29.7115 68.2005 29.5412 69.119 29.2378C69.6276 29.0586 70.1106 28.8218 70.6 28.6016C70.5692 28.608 70.5384 28.6144 70.5075 28.6208V28.6208Z" fill="#FF6B00"></path><path d="M77.5917 25.3293C77.2706 25.4394 76.9906 25.6378 76.6836 25.7761C77.1537 25.7441 77.5956 25.5251 77.9758 25.2576C78.0182 25.2281 78.0606 25.1974 78.103 25.168C77.9296 25.2128 77.7587 25.2653 77.593 25.3293H77.5917Z" fill="#FF6B00"></path><path d="M77.7564 19.2964C77.8772 18.9469 78.1225 18.0546 78.2368 17.5092C78.3511 16.9242 78.3807 16.3225 78.4629 15.7656C78.0262 16.8832 77.723 18.0917 77.7564 19.2964V19.2964Z" fill="#FF6B00"></path><path d="M90.2623 2.63694C89.6688 2.35274 89.0471 2.09926 88.3933 1.92388C87.7151 1.75489 87.0099 1.68064 86.3047 1.66016C87.4184 1.99045 88.5295 2.33354 89.6855 2.55245C89.9103 2.59725 90.1351 2.6395 90.3586 2.68559C90.3265 2.67023 90.2957 2.65358 90.2636 2.63822L90.2623 2.63694Z" fill="#FF6B00"></path><path d="M82.3019 6.43982C82.3019 6.43086 82.3019 6.4219 82.3006 6.41294C82.1876 5.24925 81.9384 4.09836 81.5659 2.98971C81.0816 1.53542 79.9384 0.707135 78.3867 0.993898C78.5486 1.05535 78.8106 1.05663 79.0148 1.1232C79.1459 1.15904 79.3925 1.26146 79.5762 1.37027C79.5877 1.37795 79.6006 1.38564 79.6109 1.39332C80.2428 1.85546 80.433 2.13455 80.7258 2.758C80.7297 2.76696 80.7348 2.7772 80.7374 2.78616C81.2846 4.20717 81.8189 5.6333 82.3251 7.06968C82.4265 7.43837 82.3096 6.59985 82.3019 6.43982Z" fill="white"></path><path d="M54.0469 31.7662C54.4271 31.7291 54.7816 31.5767 55.0822 31.3438C54.711 31.409 54.3577 31.5537 54.0469 31.7662Z" fill="white"></path><path d="M83.3748 16.4951C83.3658 16.4375 83.2823 16.44 83.2759 16.4976C83.1911 17.3246 83.1731 18.1184 83.028 18.8045C82.9265 19.3896 82.6786 20.0284 82.5231 20.3766C82.5167 20.392 82.5231 20.3792 82.5398 20.3356C82.4011 20.6826 82.0106 21.1332 81.8668 21.338C81.8436 21.3675 81.8231 21.3944 81.8012 21.4225C81.6818 21.5441 81.5572 21.6606 81.4403 21.7848C81.4865 21.7592 81.5328 21.7336 81.5777 21.708C81.5109 21.7938 81.4403 21.8808 81.3594 21.9807C81.4403 21.9282 81.5212 21.8757 81.6034 21.8232C82.0222 21.5441 82.4448 21.2561 82.8006 20.9015C83.0614 20.5994 83.2617 20.246 83.4133 19.8799C83.8423 18.7917 83.543 17.6088 83.3748 16.4964V16.4951Z" fill="white"></path><path d="M57.1358 26.8089C57.0831 26.5951 57.0215 26.3186 56.9637 26.1406C56.9521 26.5157 56.9495 26.8895 56.9611 27.2646C56.9714 27.7089 56.9097 27.915 56.8378 28.3477C56.7735 28.6946 56.7183 29.0467 56.586 29.3757C56.5231 29.4998 56.3419 29.9351 56.1891 30.2027C55.9103 30.5906 55.683 30.9388 55.2578 31.2166C55.7305 31.095 56.112 30.7595 56.446 30.4203C56.6901 30.1182 56.884 29.77 57.051 29.4205C57.2026 29.0799 57.2385 28.7023 57.2719 28.3349C57.3336 27.8202 57.2732 27.3069 57.1371 26.8089H57.1358Z" fill="white"></path><path d="M94.5553 7.69166C94.0852 8.03732 93.6818 7.45867 93.457 7.09766C93.4969 7.32937 93.5598 7.56877 93.7152 7.75183C93.9593 8.0578 94.3729 8.08212 94.6028 7.74671C94.6401 7.69935 94.6748 7.6507 94.7069 7.59949C94.6581 7.63278 94.608 7.66222 94.5566 7.69166H94.5553Z" fill="white"></path><path d="M92.517 10.7331C92.3873 10.8291 92.2242 10.9572 92.0546 10.8931C91.8041 10.7677 91.6577 10.4553 91.5614 10.2031C91.4881 10.7984 92.0315 11.5192 92.5273 10.8394C92.5736 10.7741 92.6095 10.7011 92.6378 10.6256C92.5992 10.6627 92.5594 10.6986 92.517 10.7318V10.7331Z" fill="white"></path><path d="M70.1503 0.335412C69.6494 0.38662 69.1677 0.542803 68.7065 0.741232C68.6667 0.765556 68.4843 0.809082 68.5691 0.86285C68.5806 0.86157 68.5909 0.857729 68.6025 0.855169C68.6051 0.855169 68.6051 0.857729 68.6076 0.859009C69.2717 0.734831 69.9178 0.544083 70.5601 0.336692C70.5935 0.326451 70.6256 0.316209 70.659 0.304688C70.4882 0.307248 70.3186 0.316209 70.1491 0.335412H70.1503Z" fill="#FF6B00"></path><path d="M64.0953 18.9414C63.9823 19.9528 63.9707 20.9756 63.6406 21.9486C64.482 20.9961 64.4524 20.0936 64.0953 18.9414Z" fill="#FF6B00"></path><path d="M51.0779 23.1256C50.7979 22.6173 50.5616 22.0848 50.2828 21.5753C49.9193 20.9198 49.5224 20.2567 49.4093 19.5039C49.1062 20.9313 49.9655 22.337 50.9983 23.26C51.0869 23.3355 51.1768 23.4098 51.2693 23.4815C51.2051 23.3624 51.1396 23.2433 51.0767 23.1243L51.0779 23.1256Z" fill="#FF6B00"></path><path d="M37.7602 34.7985C37.4069 35.0801 37.0871 35.4117 36.6953 35.6409C37.2656 35.5513 37.7949 35.2504 38.2496 34.9048C38.694 34.5348 39.0074 34.0368 39.2579 33.5234C38.7698 33.9625 38.2637 34.3786 37.7602 34.7998V34.7985Z" fill="#FF6B00"></path><path d="M93.5234 10.5933C93.6956 10.4934 93.8882 10.19 94.018 9.95703C93.7868 10.1068 93.6249 10.3398 93.5234 10.5933Z" fill="#FF6B00"></path><path d="M63.5898 1.25756C64.0266 1.28572 64.4607 1.16538 64.8641 1.00408C64.4235 0.998957 64.0009 1.10905 63.5898 1.25756Z" fill="#FF6B00"></path><path d="M51.2227 33.8056C51.7724 33.8184 52.3171 33.7083 52.8232 33.497C52.2734 33.4855 51.7249 33.5802 51.2227 33.8056Z" fill="#FF6B00"></path><path d="M48.6016 6.92102C49.0576 6.74563 49.4982 6.65474 49.9593 6.41406C49.4866 6.48831 48.9677 6.59969 48.6016 6.92102Z" fill="#FF6B00"></path><path d="M57.3125 32.0357C58.2001 32.0217 59.0607 31.7848 59.8815 31.4609C58.9914 31.4661 58.1333 31.708 57.3125 32.0357Z" fill="#FF6B00"></path><path d="M29.6867 39.1727C29.6867 39.2944 29.6662 39.3917 29.7304 39.2124C29.8447 38.9282 29.9989 38.5864 30.1312 38.2613C30.2262 38.0423 30.2994 37.8068 30.4613 37.625C29.9423 37.9412 29.7137 38.5915 29.6867 39.1727V39.1727Z" fill="white"></path><path d="M36.3618 23.7461C36.5352 24.3388 36.3926 24.9533 36.25 25.5384C36.6855 25.016 36.8165 24.3004 36.3618 23.7461Z" fill="white"></path><path d="M31.4439 9.3067C31.1819 9.15563 30.9289 8.95336 30.6283 8.89063C30.1787 8.88807 30.4985 9.44624 30.5962 9.66131C30.7426 9.94295 30.898 10.2207 31.0278 10.5101C31.0162 10.0812 30.8852 9.67027 30.7272 9.27469C30.7105 9.2286 30.6874 9.1838 30.6707 9.13771C30.8389 9.15435 31.0727 9.24781 31.2448 9.26829C31.3116 9.28109 31.3784 9.29389 31.4452 9.30541L31.4439 9.3067Z" fill="white"></path><path d="M52.1968 11.6953C52.1287 12.3264 52.0966 12.9614 52.0195 13.5913C52.3574 13.0139 52.3548 12.3277 52.1968 11.6953Z" fill="white"></path><path d="M46.6572 32.5611C46.4632 32.8568 46.3361 33.1973 46.3399 33.5545C46.4966 33.2447 46.6122 32.9887 46.6662 32.6328C46.6688 32.5905 46.7073 32.4676 46.6559 32.5624L46.6572 32.5611Z" fill="white"></path><path d="M69.2617 13.6914C69.3658 14.0499 69.5109 14.3955 69.7152 14.7092C69.6458 14.3392 69.4994 13.9858 69.2617 13.6914Z" fill="white"></path><path d="M41.0285 28.8007C41.0298 28.7687 41.0311 28.7367 41.0324 28.706C41.0285 28.715 41.0259 28.7252 41.0221 28.7355C41.0092 28.5793 40.9951 28.4218 40.9836 28.2656C40.9784 28.2899 40.9733 28.3143 40.9681 28.3386C40.8821 28.7969 40.8345 29.1886 40.778 29.5817C40.7613 29.6546 40.7433 29.7263 40.7266 29.7993C40.6791 30.0733 40.5622 30.4202 40.4582 30.7031C40.4094 30.7978 40.3606 30.8913 40.3117 30.986C40.006 31.5877 39.7902 31.7605 39.1955 32.0819C38.8063 32.2547 38.4839 32.4864 38.0664 32.5351C38.1204 32.5466 38.1743 32.553 38.2283 32.5555C38.1974 32.5645 38.1692 32.5735 38.1371 32.5811C38.4697 32.6055 38.7999 32.5235 39.1223 32.448C39.419 32.3802 39.7222 32.311 39.9893 32.1587C40.2925 31.9474 40.5776 31.6735 40.7202 31.3291C40.8191 31.0628 40.8718 30.7812 40.9424 30.506C40.99 30.2576 41.0002 30.0054 41.0054 29.7532C41.0092 29.7314 41.0131 29.7097 41.0157 29.6866C41.0606 29.3922 41.0503 29.0965 41.0285 28.802V28.8007Z" fill="white"></path><path d="M17.6559 38.8128C16.1774 39.1905 14.7645 39.2033 13.1717 39.2481C11.7356 39.3031 10.3008 39.4388 8.87109 39.5899C11.837 40.0367 14.9751 40.294 17.7741 38.8807C17.9141 38.8154 18.0541 38.7488 18.1928 38.6797C18.0143 38.7258 17.8345 38.7693 17.6546 38.8115L17.6559 38.8128Z" fill="white"></path><path d="M4.00147 34.2871C3.51335 34.6021 3.03037 34.9324 2.59363 35.3177C2.2725 35.6045 1.97064 35.9117 1.63281 36.1793C2.57308 35.7862 3.33865 35.0757 4.01303 34.3307C4.09652 34.2334 4.16717 34.1758 4.00018 34.2884L4.00147 34.2871Z" fill="white"></path><path d="M13.4562 23.7889C12.6868 24.1307 12.0844 24.767 11.5911 25.434C11.523 25.5338 11.4575 25.635 11.3984 25.7399C11.4961 25.6401 11.595 25.5441 11.699 25.4506C12.2411 24.9872 12.8011 24.5494 13.428 24.1947C14.1383 23.8273 14.8949 23.5214 15.6707 23.3242C14.9167 23.3306 14.1524 23.5009 13.4562 23.7876V23.7889Z" fill="white"></path><path d="M13.2472 27.7365C12.9441 27.6175 12.6127 27.5125 12.2838 27.5394C12.5793 27.5996 12.8426 27.7711 13.0918 27.9324C13.3384 28.086 13.5427 28.3498 13.463 28.7197C13.3872 29.1294 13.1432 29.4699 12.9055 29.8284C12.5549 30.3392 12.1991 30.8474 11.8394 31.3518C11.797 31.412 11.7533 31.4721 11.7109 31.531C12.1246 31.1956 12.5292 30.8487 12.9017 30.4685C13.3089 30.0217 13.7687 29.5544 13.8766 28.9374C13.9935 28.4432 13.7469 27.8979 13.2472 27.7365Z" fill="#FF6B00"></path></svg>